<svg width="17" height="12" viewBox="0 0 17 12" fill="none" xmlns="http://www.w3.org/2000/svg">
<path d="M15.5 12C15.5 12 16.5 12 16.5 11C16.5 10 15.5 7 11.5 7C7.5 7 6.5 10 6.5 11C6.5 12 7.5 12 7.5 12H15.5ZM7.522 11L7.5 10.996C7.501 10.732 7.667 9.966 8.26 9.276C8.812 8.629 9.782 8 11.5 8C13.217 8 14.187 8.63 14.74 9.276C15.333 9.966 15.498 10.733 15.5 10.996L15.492 10.998L15.478 11H7.522ZM11.5 5C12.0304 5 12.5391 4.78929 12.9142 4.41421C13.2893 4.03914 13.5 3.53043 13.5 3C13.5 2.46957 13.2893 1.96086 12.9142 1.58579C12.5391 1.21071 12.0304 1 11.5 1C10.9696 1 10.4609 1.21071 10.0858 1.58579C9.71071 1.96086 9.5 2.46957 9.5 3C9.5 3.53043 9.71071 4.03914 10.0858 4.41421C10.4609 4.78929 10.9696 5 11.5 5ZM14.5 3C14.5 3.39397 14.4224 3.78407 14.2716 4.14805C14.1209 4.51203 13.8999 4.84274 13.6213 5.12132C13.3427 5.3999 13.012 5.62087 12.6481 5.77164C12.2841 5.9224 11.894 6 11.5 6C11.106 6 10.7159 5.9224 10.3519 5.77164C9.98797 5.62087 9.65726 5.3999 9.37868 5.12132C9.1001 4.84274 8.87913 4.51203 8.72836 4.14805C8.5776 3.78407 8.5 3.39397 8.5 3C8.5 2.20435 8.81607 1.44129 9.37868 0.87868C9.94129 0.316071 10.7044 0 11.5 0C12.2956 0 13.0587 0.316071 13.6213 0.87868C14.1839 1.44129 14.5 2.20435 14.5 3ZM7.436 7.28C7.03576 7.15491 6.6235 7.07213 6.206 7.033C5.97137 7.01012 5.73574 6.9991 5.5 7C1.5 7 0.5 10 0.5 11C0.5 11.6667 0.833333 12 1.5 12H5.716C5.56782 11.6878 5.4939 11.3455 5.5 11C5.5 9.99 5.877 8.958 6.59 8.096C6.833 7.802 7.116 7.527 7.436 7.28ZM5.42 8C4.82852 8.88945 4.50884 9.93188 4.5 11H1.5C1.5 10.74 1.664 9.97 2.26 9.276C2.805 8.64 3.752 8.02 5.42 8.001V8ZM2 3.5C2 2.70435 2.31607 1.94129 2.87868 1.37868C3.44129 0.816071 4.20435 0.5 5 0.5C5.79565 0.5 6.55871 0.816071 7.12132 1.37868C7.68393 1.94129 8 2.70435 8 3.5C8 4.29565 7.68393 5.05871 7.12132 5.62132C6.55871 6.18393 5.79565 6.5 5 6.5C4.20435 6.5 3.44129 6.18393 2.87868 5.62132C2.31607 5.05871 2 4.29565 2 3.5ZM5 1.5C4.46957 1.5 3.96086 1.71071 3.58579 2.08579C3.21071 2.46086 3 2.96957 3 3.5C3 4.03043 3.21071 4.53914 3.58579 4.91421C3.96086 5.28929 4.46957 5.5 5 5.5C5.53043 5.5 6.03914 5.28929 6.41421 4.91421C6.78929 4.53914 7 4.03043 7 3.5C7 2.96957 6.78929 2.46086 6.41421 2.08579C6.03914 1.71071 5.53043 1.5 5 1.5Z" fill="#1A1A1A"/>
</svg>
